<svg id="Layer_1" data-name="Layer 1" xmlns="http://www.w3.org/2000/svg" viewBox="0 0 411.3 254.65"><defs><style>.cls-1{fill:#970020;}.cls-2{fill:#d300ba;}.cls-3{fill:#07a083;}.cls-4{fill:#990724;}</style></defs><title>Esmmms</title><path class="cls-1" d="M383,375.35c1.25-1.66,3.06-1,4.62-1q47.67-.06,95.34,0c-1.65,1.69-3.77.94-5.67.94q-42.84.07-85.68,0c-2.32,0-4.67-.25-6.78,1.07Z" transform="translate(-381.5 -276.18)"/><path class="cls-2" d="M594.92,473.83v14.11H546V418.36h48v14.11H562.09V446h27.44v13H562.09v14.8Z" transform="translate(-381.5 -276.18)"/><path class="cls-2" d="M644,438.84a6.79,6.79,0,0,0-2.06-1.51,42.77,42.77,0,0,0-4.41-2.21,43.33,43.33,0,0,0-5.78-2.06,23,23,0,0,0-6.27-.88,12,12,0,0,0-6.37,1.41,4.76,4.76,0,0,0-2.25,4.33,4.48,4.48,0,0,0,1.71,3.7,15.41,15.41,0,0,0,4.95,2.39c2.16.68,4.8,1.47,7.94,2.38A59,59,0,0,1,643,450.62a19.15,19.15,0,0,1,7.5,6.38q2.6,3.88,2.6,10.31a20.7,20.7,0,0,1-2.16,9.88,17.9,17.9,0,0,1-5.83,6.52,25,25,0,0,1-8.38,3.6,41.59,41.59,0,0,1-9.7,1.12,54.79,54.79,0,0,1-10.44-1,57.73,57.73,0,0,1-10.24-2.94,46.77,46.77,0,0,1-9-4.65l7.06-14a12.52,12.52,0,0,0,2.55,1.82,46.47,46.47,0,0,0,5.34,2.74,49.74,49.74,0,0,0,7.1,2.5,29.8,29.8,0,0,0,7.94,1.08q4.32,0,6.42-1.34a4.22,4.22,0,0,0,2.11-3.75,4.65,4.65,0,0,0-2.21-4.09,23.79,23.79,0,0,0-6-2.63q-3.78-1.17-8.68-2.63a49.69,49.69,0,0,1-10.53-4.39,16.4,16.4,0,0,1-6.18-5.94,17.47,17.47,0,0,1-2-8.78,21.08,21.08,0,0,1,3.48-12.32,21.73,21.73,0,0,1,9.36-7.6A31.44,31.44,0,0,1,626,417.87a37.44,37.44,0,0,1,9.46,1.18A53.31,53.31,0,0,1,644,422c2.65,1.18,5,2.35,7.11,3.53Z" transform="translate(-381.5 -276.18)"/><path class="cls-2" d="M715,487.94V446.49l-15,30.18h-8.82l-15-30.18v41.45H660.09V418.36h17.45l18,36.36,18.13-36.36h17.35v69.58Z" transform="translate(-381.5 -276.18)"/><path class="cls-2" d="M783.67,438.84a6.94,6.94,0,0,0-2.06-1.51,42.77,42.77,0,0,0-4.41-2.21,43.33,43.33,0,0,0-5.78-2.06,23,23,0,0,0-6.27-.88,12,12,0,0,0-6.37,1.41,4.75,4.75,0,0,0-2.26,4.33,4.46,4.46,0,0,0,1.72,3.7,15.41,15.41,0,0,0,5,2.39q3.22,1,7.94,2.38a59.19,59.19,0,0,1,11.56,4.23,19.15,19.15,0,0,1,7.5,6.38q2.59,3.88,2.59,10.31a20.82,20.82,0,0,1-2.15,9.88,17.9,17.9,0,0,1-5.83,6.52,25.09,25.09,0,0,1-8.38,3.6,41.59,41.59,0,0,1-9.7,1.12,54.79,54.79,0,0,1-10.44-1A57.49,57.49,0,0,1,746,484.46a46.77,46.77,0,0,1-9-4.65l7.06-14a12.52,12.52,0,0,0,2.55,1.82,44.86,44.86,0,0,0,5.34,2.74,49.74,49.74,0,0,0,7.1,2.5,29.74,29.74,0,0,0,7.94,1.08q4.31,0,6.42-1.34a4.24,4.24,0,0,0,2.11-3.75,4.65,4.65,0,0,0-2.21-4.09,23.71,23.71,0,0,0-6-2.63q-3.76-1.17-8.67-2.63a49.47,49.47,0,0,1-10.53-4.39,16.4,16.4,0,0,1-6.18-5.94,17.47,17.47,0,0,1-2-8.78,21.08,21.08,0,0,1,3.48-12.32,21.73,21.73,0,0,1,9.36-7.6,31.44,31.44,0,0,1,12.84-2.59,37.36,37.36,0,0,1,9.45,1.18,53.78,53.78,0,0,1,8.53,2.94c2.65,1.18,5,2.35,7.11,3.53Z" transform="translate(-381.5 -276.18)"/><path class="cls-3" d="M482.08,515v2.54H475V505h7v2.54h-4.63V510h4v2.35h-4V515Z" transform="translate(-381.5 -276.18)"/><path class="cls-3" d="M484.53,517.52v-9.94h2.05v7.73h3.81v2.21Z" transform="translate(-381.5 -276.18)"/><path class="cls-3" d="M498.78,515.31v2.21h-6.29v-9.94h6.18v2.2h-4.13v1.65h3.54v2.07h-3.54v1.81Z" transform="translate(-381.5 -276.18)"/><path class="cls-3" d="M500.61,512.47a5.84,5.84,0,0,1,.29-1.8,5.29,5.29,0,0,1,.85-1.59A4.21,4.21,0,0,1,503.1,508a3.7,3.7,0,0,1,1.81-.43,3.58,3.58,0,0,1,3.4,2.18l-1.57,1.37a1.69,1.69,0,0,0-.82-1,2.34,2.34,0,0,0-1.05-.27,1.87,1.87,0,0,0-1,.24,2.08,2.08,0,0,0-.68.64,2.9,2.9,0,0,0-.41.89,3.74,3.74,0,0,0-.13,1,3.4,3.4,0,0,0,.16,1.06,3,3,0,0,0,.44.91,2.16,2.16,0,0,0,.7.62,1.82,1.82,0,0,0,.9.22,2,2,0,0,0,.71-.13,1.93,1.93,0,0,0,.68-.42,1.73,1.73,0,0,0,.46-.74l1.68,1.24a2.89,2.89,0,0,1-.84,1.25,4.17,4.17,0,0,1-1.31.79,4.06,4.06,0,0,1-1.43.27,3.39,3.39,0,0,1-1.7-.44,4.57,4.57,0,0,1-1.35-1.17,5.37,5.37,0,0,1-.87-1.66A5.69,5.69,0,0,1,500.61,512.47Z" transform="translate(-381.5 -276.18)"/><path class="cls-3" d="M517.49,509.78h-2.73v7.74h-2v-7.74H510v-2.2h7.5Z" transform="translate(-381.5 -276.18)"/><path class="cls-3" d="M519.68,517.52v-9.94h4a2.39,2.39,0,0,1,1.51.5,3.6,3.6,0,0,1,1,1.28,3.71,3.71,0,0,1,.38,1.63,3.66,3.66,0,0,1-.18,1.13,3.57,3.57,0,0,1-.51,1,3.22,3.22,0,0,1-.78.74l2.06,3.67H524.9l-1.79-3.11h-1.38v3.11Zm2.05-5.33h1.91a.77.77,0,0,0,.46-.15,1,1,0,0,0,.33-.43,1.52,1.52,0,0,0,.12-.62,1.39,1.39,0,0,0-.14-.65,1.23,1.23,0,0,0-.37-.41.8.8,0,0,0-.47-.15h-1.84Z" transform="translate(-381.5 -276.18)"/><path class="cls-3" d="M529.38,517.52v-9.94h2v9.94Z" transform="translate(-381.5 -276.18)"/><path class="cls-3" d="M533.81,512.47a5.56,5.56,0,0,1,.29-1.8,5,5,0,0,1,.84-1.59A4.14,4.14,0,0,1,536.3,508a3.69,3.69,0,0,1,1.8-.43,3.58,3.58,0,0,1,3.4,2.18l-1.56,1.37a1.73,1.73,0,0,0-.82-1,2.41,2.41,0,0,0-1.06-.27,1.84,1.84,0,0,0-.95.24,2,2,0,0,0-.69.64,2.88,2.88,0,0,0-.4.89,3.58,3.58,0,0,0,0,2.05,2.77,2.77,0,0,0,.45.91,2,2,0,0,0,.69.62,1.86,1.86,0,0,0,.91.22,2.06,2.06,0,0,0,.71-.13,1.89,1.89,0,0,0,.67-.42,1.75,1.75,0,0,0,.47-.74l1.67,1.24a3,3,0,0,1-.83,1.25,4.29,4.29,0,0,1-1.31.79,4.16,4.16,0,0,1-1.44.27,3.42,3.42,0,0,1-1.7-.44A4.53,4.53,0,0,1,535,516a5.61,5.61,0,0,1-.88-1.66A6,6,0,0,1,533.81,512.47Z" transform="translate(-381.5 -276.18)"/><path class="cls-3" d="M542.84,517.52l3.45-9.94H548l3.43,9.94h-2.17l-.64-2.08h-2.92l-.63,2.08Zm4.28-6.87-.79,2.58h1.58Z" transform="translate(-381.5 -276.18)"/><path class="cls-3" d="M553.35,517.52v-9.94h2v7.73h3.81v2.21Z" transform="translate(-381.5 -276.18)"/><path class="cls-3" d="M571.52,508.67a.91.91,0,0,0-.3-.27,6,6,0,0,0-1.47-.77,2.69,2.69,0,0,0-.91-.16,1.49,1.49,0,0,0-.93.25.92.92,0,0,0-.33.78.91.91,0,0,0,.25.67,2.21,2.21,0,0,0,.72.43l1.15.43a7.71,7.71,0,0,1,1.68.76,3.15,3.15,0,0,1,1.09,1.15,4,4,0,0,1,.38,1.86,4.43,4.43,0,0,1-.32,1.78,3.16,3.16,0,0,1-.84,1.18,3.27,3.27,0,0,1-1.22.65,5.06,5.06,0,0,1-1.41.2,6.62,6.62,0,0,1-1.51-.18,7.77,7.77,0,0,1-1.49-.53,6.64,6.64,0,0,1-1.31-.84l1-2.53a2,2,0,0,0,.37.33,6.11,6.11,0,0,0,.77.49,6.52,6.52,0,0,0,1,.45,3.58,3.58,0,0,0,1.16.2,1.45,1.45,0,0,0,.93-.25.81.81,0,0,0,.3-.67.89.89,0,0,0-.32-.74,3.25,3.25,0,0,0-.86-.47l-1.26-.48a6.4,6.4,0,0,1-1.53-.79,2.71,2.71,0,0,1-.9-1.07,3.84,3.84,0,0,1-.29-1.58,4.45,4.45,0,0,1,.51-2.22,3.3,3.3,0,0,1,1.35-1.37,3.74,3.74,0,0,1,1.87-.47,4.51,4.51,0,0,1,1.37.21,7.23,7.23,0,0,1,1.24.53c.38.21.72.43,1,.64Z" transform="translate(-381.5 -276.18)"/><path class="cls-3" d="M579,515.35a1.6,1.6,0,0,0,.88-.22,1.7,1.7,0,0,0,.56-.6,2.83,2.83,0,0,0,.31-.86,4.62,4.62,0,0,0,.1-1v-5.1h2v5.1a7.94,7.94,0,0,1-.23,1.94,4.64,4.64,0,0,1-.71,1.56,3.28,3.28,0,0,1-1.2,1.05,3.68,3.68,0,0,1-1.75.38,3.63,3.63,0,0,1-1.78-.4,3.28,3.28,0,0,1-1.2-1.08,5.25,5.25,0,0,1-.68-1.58,7.49,7.49,0,0,1-.22-1.87v-5.1h2v5.1a5.42,5.42,0,0,0,.09,1,2.77,2.77,0,0,0,.31.85,1.89,1.89,0,0,0,.57.59A1.57,1.57,0,0,0,579,515.35Z" transform="translate(-381.5 -276.18)"/><path class="cls-3" d="M585.65,517.52v-9.94h4a2.39,2.39,0,0,1,1.51.5,3.6,3.6,0,0,1,1,1.28,3.71,3.71,0,0,1,.38,1.63,3.66,3.66,0,0,1-.18,1.13,3.57,3.57,0,0,1-.51,1,3.05,3.05,0,0,1-.78.74l2.06,3.67h-2.32l-1.79-3.11h-1.38v3.11Zm2-5.33h1.91a.77.77,0,0,0,.46-.15,1,1,0,0,0,.33-.43,1.52,1.52,0,0,0,.12-.62,1.39,1.39,0,0,0-.14-.65,1.23,1.23,0,0,0-.37-.41.8.8,0,0,0-.47-.15h-1.84Z" transform="translate(-381.5 -276.18)"/><path class="cls-3" d="M596.25,507.58l2.14,6.36,2.1-6.36h2.15l-3.4,9.94h-1.72l-3.43-9.94Z" transform="translate(-381.5 -276.18)"/><path class="cls-3" d="M604.6,517.52v-9.94h2v9.94Z" transform="translate(-381.5 -276.18)"/><path class="cls-3" d="M609,512.47a5.56,5.56,0,0,1,.29-1.8,5,5,0,0,1,.84-1.59,4.21,4.21,0,0,1,1.35-1.13,3.72,3.72,0,0,1,1.81-.43,3.58,3.58,0,0,1,3.4,2.18l-1.56,1.37a1.77,1.77,0,0,0-.82-1,2.41,2.41,0,0,0-1.06-.27,1.84,1.84,0,0,0-.95.24,2,2,0,0,0-.69.64,2.88,2.88,0,0,0-.4.89,3.76,3.76,0,0,0-.14,1,3.4,3.4,0,0,0,.16,1.06,2.77,2.77,0,0,0,.45.91,2,2,0,0,0,.69.62,1.83,1.83,0,0,0,.91.22,2.1,2.1,0,0,0,.71-.13,2,2,0,0,0,.67-.42,1.75,1.75,0,0,0,.47-.74l1.67,1.24a2.89,2.89,0,0,1-.84,1.25,4.16,4.16,0,0,1-2.74,1.06,3.42,3.42,0,0,1-1.7-.44,4.41,4.41,0,0,1-1.34-1.17,5.61,5.61,0,0,1-.88-1.66A6,6,0,0,1,609,512.47Z" transform="translate(-381.5 -276.18)"/><path class="cls-3" d="M625.35,515.31v2.21h-6.28v-9.94h6.17v2.2h-4.13v1.65h3.55v2.07h-3.55v1.81Z" transform="translate(-381.5 -276.18)"/><path class="cls-3" d="M640.29,517.52v-7.47l-2.18,5.44h-1.28l-2.18-5.44v7.47h-2.33V505h2.53l2.62,6.55L640.1,505h2.52v12.54Z" transform="translate(-381.5 -276.18)"/><path class="cls-3" d="M644.65,517.52l3.46-9.94h1.66l3.43,9.94H651l-.64-2.08h-2.92l-.64,2.08Zm4.28-6.87-.78,2.58h1.57Z" transform="translate(-381.5 -276.18)"/><path class="cls-3" d="M657.21,512.28v5.24h-2.05v-9.94h1.59L661,513v-5.4h2v9.94h-1.64Z" transform="translate(-381.5 -276.18)"/><path class="cls-3" d="M665,517.52l3.45-9.94h1.67l3.42,9.94h-2.16l-.64-2.08h-2.92l-.63,2.08Zm4.28-6.87-.79,2.58H670Z" transform="translate(-381.5 -276.18)"/><path class="cls-3" d="M678.71,517.59a3.19,3.19,0,0,1-1.57-.4,4.28,4.28,0,0,1-1.29-1.12,5.69,5.69,0,0,1-.89-1.65,6,6,0,0,1-.32-1.95,5.8,5.8,0,0,1,.32-1.94,5.38,5.38,0,0,1,.9-1.59,4.32,4.32,0,0,1,1.35-1.06,3.76,3.76,0,0,1,1.67-.38,3.57,3.57,0,0,1,3.36,2.18l-1.54,1.43a2.25,2.25,0,0,0-.79-1,1.89,1.89,0,0,0-1.11-.36,1.69,1.69,0,0,0-.84.21,2,2,0,0,0-.66.59,2.78,2.78,0,0,0-.43.88,4.09,4.09,0,0,0,0,2.23,2.75,2.75,0,0,0,.45.87,2,2,0,0,0,.69.58,1.91,1.91,0,0,0,.86.2A2,2,0,0,0,680,515a3.79,3.79,0,0,0,1-1v2.49a3.31,3.31,0,0,1-1.05.83A2.71,2.71,0,0,1,678.71,517.59Zm2.14-3.49h-1.71v-1.82h3.41v5.24h-1.7Z" transform="translate(-381.5 -276.18)"/><path class="cls-3" d="M691.37,515.31v2.21h-6.29v-9.94h6.18v2.2h-4.13v1.65h3.54v2.07h-3.54v1.81Z" transform="translate(-381.5 -276.18)"/><path class="cls-3" d="M700.9,517.52V512l-2,4h-1.1l-2-4v5.55h-2v-9.94h2.22l2.35,4.91,2.33-4.91H703v9.94Z" transform="translate(-381.5 -276.18)"/><path class="cls-3" d="M712.11,515.31v2.21h-6.29v-9.94H712v2.2h-4.12v1.65h3.54v2.07h-3.54v1.81Z" transform="translate(-381.5 -276.18)"/><path class="cls-3" d="M716.61,512.28v5.24h-2v-9.94h1.59l4.19,5.4v-5.4h2v9.94h-1.63Z" transform="translate(-381.5 -276.18)"/><path class="cls-3" d="M732.12,509.78h-2.74v7.74h-2v-7.74h-2.73v-2.2h7.51Z" transform="translate(-381.5 -276.18)"/><path class="cls-3" d="M744.54,508.67c0-.06-.12-.15-.29-.27a5.57,5.57,0,0,0-.64-.4,5.33,5.33,0,0,0-.84-.37,2.69,2.69,0,0,0-.91-.16,1.49,1.49,0,0,0-.93.25.92.92,0,0,0-.32.78.9.9,0,0,0,.24.67,2.21,2.21,0,0,0,.72.43l1.15.43a7.71,7.71,0,0,1,1.68.76,3.07,3.07,0,0,1,1.09,1.15,4,4,0,0,1,.38,1.86,4.43,4.43,0,0,1-.32,1.78,3,3,0,0,1-.84,1.18,3.27,3.27,0,0,1-1.22.65,5.06,5.06,0,0,1-1.41.2,6.69,6.69,0,0,1-1.51-.18,7.77,7.77,0,0,1-1.49-.53,6.29,6.29,0,0,1-1.3-.84l1-2.53a2,2,0,0,0,.37.33,6.94,6.94,0,0,0,.77.49,6.64,6.64,0,0,0,1,.45,3.48,3.48,0,0,0,1.15.2,1.43,1.43,0,0,0,.93-.25.81.81,0,0,0,.31-.67.9.9,0,0,0-.33-.74,3.25,3.25,0,0,0-.86-.47l-1.26-.48a6.4,6.4,0,0,1-1.53-.79,2.8,2.8,0,0,1-.9-1.07,3.84,3.84,0,0,1-.29-1.58,4.45,4.45,0,0,1,.51-2.22,3.33,3.33,0,0,1,1.36-1.37,3.68,3.68,0,0,1,1.86-.47,4.51,4.51,0,0,1,1.37.21,7.23,7.23,0,0,1,1.24.53,11.6,11.6,0,0,1,1,.64Z" transform="translate(-381.5 -276.18)"/><path class="cls-3" d="M749.44,507.58l1.95,4.41,2-4.41h2.22l-3.17,6.6v3.34h-2v-3.35l-3.14-6.59Z" transform="translate(-381.5 -276.18)"/><path class="cls-3" d="M762.37,510.69a1.93,1.93,0,0,0-.46-.35,5.48,5.48,0,0,0-.84-.41,2.8,2.8,0,0,0-1-.18,1.47,1.47,0,0,0-.77.16.51.51,0,0,0-.26.47.57.57,0,0,0,.21.47,1.76,1.76,0,0,0,.6.3l1,.35a6.54,6.54,0,0,1,1.43.62,2.59,2.59,0,0,1,.94.92,2.93,2.93,0,0,1,.33,1.5,3.56,3.56,0,0,1-.27,1.46,2.51,2.51,0,0,1-.74,1,3.08,3.08,0,0,1-1,.52,4.84,4.84,0,0,1-1.21.16,6.14,6.14,0,0,1-1.95-.33,6.44,6.44,0,0,1-1.74-.87l.89-2.21a2.91,2.91,0,0,0,.56.44,5.41,5.41,0,0,0,1,.48,3.77,3.77,0,0,0,1.25.21,1.48,1.48,0,0,0,.76-.16.49.49,0,0,0,.25-.44.6.6,0,0,0-.26-.51,2.94,2.94,0,0,0-.73-.34l-1.07-.35a5.42,5.42,0,0,1-1.3-.65,2.17,2.17,0,0,1-.75-.9,3,3,0,0,1-.25-1.3,3.41,3.41,0,0,1,.43-1.77,2.86,2.86,0,0,1,1.17-1.09,3.37,3.37,0,0,1,1.58-.37,4.23,4.23,0,0,1,1.74.35,7.94,7.94,0,0,1,1.38.74Z" transform="translate(-381.5 -276.18)"/><path class="cls-3" d="M772.75,509.78H770v7.74h-2v-7.74h-2.73v-2.2h7.51Z" transform="translate(-381.5 -276.18)"/><path class="cls-3" d="M781.22,515.31v2.21h-6.28v-9.94h6.17v2.2H777v1.65h3.54v2.07H777v1.81Z" transform="translate(-381.5 -276.18)"/><path class="cls-3" d="M790.75,517.52V512l-2,4h-1.1l-2-4v5.55h-2.05v-9.94h2.22l2.35,4.91,2.33-4.91h2.22v9.94Z" transform="translate(-381.5 -276.18)"/><polygon class="cls-4" points="257.16 97.18 255.81 98.09 254.32 99.1 254.25 99.15 252.88 100.09 252.86 100.09 252.79 100.14 252.38 100.43 252.38 100.43 252.39 100.15 252.4 99.9 252.46 98.93 252.51 98.1 252.57 97.18 257.16 97.18"/><polygon class="cls-4" points="178.64 121.56 177.75 121.56 147.71 121.73 147.21 121.73 146.07 121.74 145.88 121.17 145.88 121.16 145.3 119.51 145.3 119.49 143.63 114.62 142.95 112.66 173.01 120.16 174.95 120.64 178.64 121.56"/><polygon class="cls-4" points="102.55 142.8 109.86 148.35 105.91 159.11 97.08 152.66 102.55 142.8"/><path class="cls-2" d="M636.69,373.36h-2.61q-43.56-.09-87.14,0c-.42-1.07-.91-2.13-1.27-3.22Q531.35,326.06,517,282c-.51-1.57-1.1-3.12-2.06-5.84-5,15.19-9.43,29.06-14,42.9q-9,27.17-18,54.31l-98.65-.08c-.82,0-2-.26-2.41.17-1.07,1.19.14,1.55,1.07,1.87,1-.14,1.94-.24,2.91-.32a4,4,0,0,0-1.07,1.4c1.53,1.25,3,2.56,4.61,3.72q35.15,25.55,70.35,51c2.85,2.05,3.66,3.74,2.48,7.3-10.09,30.49-19.93,61.06-29.85,91.61.23.25.45.51.67.76C467,505.48,501,480.12,535.41,454.38c-6.37-2.81-12.17-5.17-17.73-7.81L511.05,443l-3.36,2.4-.36.22c-.27.18-.55.37-.82.59-3.89,2.95-14.68,10.18-16,11.08-4,2.74-8,5.45-13.16,8.94,4.52-13.87,8.48-26.34,12.69-38.75.57-1.67.62-2.83,0-3.88l-10-7.66-24-18.3h0l16.47.18,2,0c7.47.06,14.94,0,22.41-.32l2.75,0,.57-1.75.9-2.76a0,0,0,0,1,0,0l1.13-3.5,0-.1c3.58-10.85,7.13-21.79,10.94-33.48,3.89,11.5,7.57,22.35,11.2,33.06l.67,2q.81,2.43,1.64,4.85a.05.05,0,0,0,0,0l.57,1.65v0a1.79,1.79,0,0,0,1.33.55h.06a1.34,1.34,0,0,0,.4,0h0c.75,0,1.54-.25,2.18-.25,9.28.08,18.57.09,27.86.09h.89c4.17,0,8.34,0,12.51,0,10.75-.05,21.51-.21,32.26-.33,10.28-6.22,19.7-13.61,29.18-20.94l.2-.12.07-.05h0l1.38-.94.07-.05,1.49-1A1.53,1.53,0,0,0,636.69,373.36Z" transform="translate(-381.5 -276.18)"/><path class="cls-3" d="M525.91,421.74l-.42-1.69,2.17-1.56,1.06-.78.1-.06c5.25-3.41,10.19-7.29,15.26-11a97.6,97.6,0,0,0-10.36-.93l-13.31-1.19-7.64-22.15-8.36,22.79h0l-24.13.47L500,419.62l-.54,1.82-6.6,22.45,1.17-.84c4.08-2.93,7.68-5.29,10.91-7.9l5.45-3.94,1.8-1.31,1.16.78,17.78,11.87-4.31-17.24Z" transform="translate(-381.5 -276.18)"/></svg>