<svg id="Layer_1" data-name="Layer 1" xmlns="http://www.w3.org/2000/svg" viewBox="0 0 413.29 254.65"><defs><style>.cls-1{fill:#970020;}.cls-2{font-size:98px;letter-spacing:-0.03em;}.cls-12,.cls-2{fill:#d300ba;}.cls-2,.cls-3{font-family:Raleway-ExtraBold, Raleway;font-weight:800;}.cls-3{font-size:19px;letter-spacing:0.08em;}.cls-13,.cls-3{fill:#07a083;}.cls-4{letter-spacing:0.07em;}.cls-5{letter-spacing:0.07em;}.cls-6{letter-spacing:0.05em;}.cls-7{letter-spacing:0.05em;}.cls-8{letter-spacing:0.06em;}.cls-9{letter-spacing:0.06em;}.cls-10{letter-spacing:0.07em;}.cls-11{fill:#990724;}</style></defs><title>esmsss</title><path class="cls-1" d="M383,375.35c1.25-1.66,3.06-1,4.62-1q47.67-.06,95.34,0c-1.65,1.69-3.77.94-5.67.94q-42.84.07-85.68,0c-2.32,0-4.67-.25-6.78,1.07Z" transform="translate(-381.5 -276.18)"/><text class="cls-2" transform="translate(157.86 211.77)">ESMS</text><text class="cls-3" transform="translate(92.52 241.35) scale(0.75 0.93)">EL<tspan class="cls-4" x="23.5" y="0">E</tspan><tspan x="35.02" y="0">CTRI</tspan><tspan class="cls-5" x="79.36" y="0">C</tspan><tspan x="92" y="0">A</tspan><tspan class="cls-6" x="104.8" y="0">L</tspan><tspan x="114.97" y="0" xml:space="preserve"> SU</tspan><tspan class="cls-7" x="147.95" y="0">R</tspan><tspan x="160.45" y="0">VICE MAN</tspan><tspan class="cls-8" x="255.13" y="0">A</tspan><tspan x="267.52" y="0">GEMEN</tspan><tspan class="cls-9" x="334.49" y="0">T</tspan><tspan x="346.12" y="0"> </tspan><tspan class="cls-10" x="352.03" y="0">S</tspan><tspan class="cls-6" x="365.02" y="0">Y</tspan><tspan x="377.11" y="0">STEM</tspan></text><polygon class="cls-11" points="257.16 97.18 255.81 98.09 254.32 99.1 254.25 99.15 252.88 100.09 252.86 100.09 252.79 100.14 252.38 100.43 252.38 100.43 252.39 100.15 252.4 99.9 252.46 98.93 252.51 98.1 252.57 97.18 257.16 97.18"/><polygon class="cls-11" points="178.64 121.56 177.75 121.56 147.71 121.73 147.21 121.73 146.07 121.74 145.88 121.17 145.88 121.16 145.3 119.51 145.3 119.49 143.63 114.62 142.95 112.66 173.01 120.16 174.95 120.64 178.64 121.56"/><polygon class="cls-11" points="102.55 142.8 109.86 148.35 105.91 159.11 97.08 152.66 102.55 142.8"/><path class="cls-12" d="M636.69,373.36h-2.61q-43.56-.09-87.14,0c-.42-1.07-.91-2.13-1.27-3.22Q531.35,326.06,517,282c-.51-1.57-1.1-3.12-2.06-5.84-5,15.19-9.43,29.06-14,42.9q-9,27.17-18,54.31l-98.65-.08c-.82,0-2-.26-2.41.17-1.07,1.19.14,1.55,1.07,1.87,1-.14,1.94-.24,2.91-.32a4,4,0,0,0-1.07,1.4c1.53,1.25,3,2.56,4.61,3.72q35.15,25.55,70.35,51c2.85,2.05,3.66,3.74,2.48,7.3-10.09,30.49-19.93,61.06-29.85,91.61.23.25.45.51.67.76C467,505.48,501,480.12,535.41,454.38c-6.37-2.81-12.17-5.17-17.73-7.81L511.05,443l-3.36,2.4-.36.22c-.27.18-.55.37-.82.59-3.89,2.95-14.68,10.18-16,11.08-4,2.74-8,5.45-13.16,8.94,4.52-13.87,8.48-26.34,12.69-38.75.57-1.67.62-2.83,0-3.88l-10-7.66-24-18.3h0l16.47.18,2,0c7.47.06,14.94,0,22.41-.32l2.75,0,.57-1.75.9-2.76a0,0,0,0,1,0,0l1.13-3.5,0-.1c3.58-10.85,7.13-21.79,10.94-33.48,3.89,11.5,7.57,22.35,11.2,33.06l.67,2q.81,2.43,1.64,4.85a.05.05,0,0,0,0,0l.57,1.65v0a1.79,1.79,0,0,0,1.33.55h.06a1.34,1.34,0,0,0,.4,0h0c.75,0,1.54-.25,2.18-.25,9.28.08,18.57.09,27.86.09h.89c4.17,0,8.34,0,12.51,0,10.75-.05,21.51-.21,32.26-.33,10.28-6.22,19.7-13.61,29.18-20.94l.2-.12.07-.05h0l1.38-.94.07-.05,1.49-1A1.53,1.53,0,0,0,636.69,373.36Z" transform="translate(-381.5 -276.18)"/><path class="cls-13" d="M525.91,421.74l-.42-1.69,2.17-1.56,1.06-.78.1-.06c5.25-3.41,10.19-7.29,15.26-11a97.6,97.6,0,0,0-10.36-.93l-13.31-1.19-7.64-22.15-8.36,22.79h0l-24.13.47L500,419.62l-.54,1.82-6.6,22.45,1.17-.84c4.08-2.93,7.68-5.29,10.91-7.9l5.45-3.94,1.8-1.31,1.16.78,17.78,11.87-4.31-17.24Z" transform="translate(-381.5 -276.18)"/></svg>