<svg id="Layer_1" data-name="Layer 1" xmlns="http://www.w3.org/2000/svg" viewBox="0 0 458.36 254.65"><defs><style>.cls-1{fill:#970020;}.cls-2{fill:#093c91;}.cls-3{fill:#990724;}</style></defs><title>Esms</title><path class="cls-1" d="M383,375.35c1.25-1.66,3.06-1,4.62-1q47.67-.06,95.34,0c-1.65,1.69-3.77.94-5.67.94q-42.84.07-85.68,0c-2.32,0-4.67-.25-6.78,1.07Z" transform="translate(-381.5 -276.18)"/><path class="cls-2" d="M594.92,473.83v14.11H546V418.36h48v14.11H562.09V446h27.44v13H562.09v14.8Z" transform="translate(-381.5 -276.18)"/><path class="cls-2" d="M644,438.84a6.79,6.79,0,0,0-2.06-1.51,42.77,42.77,0,0,0-4.41-2.21,43.33,43.33,0,0,0-5.78-2.06,23,23,0,0,0-6.27-.88,12,12,0,0,0-6.37,1.41,4.76,4.76,0,0,0-2.25,4.33,4.48,4.48,0,0,0,1.71,3.7,15.41,15.41,0,0,0,4.95,2.39c2.16.68,4.8,1.47,7.94,2.38A59,59,0,0,1,643,450.62a19.15,19.15,0,0,1,7.5,6.38q2.6,3.88,2.6,10.31a20.7,20.7,0,0,1-2.16,9.88,17.9,17.9,0,0,1-5.83,6.52,25,25,0,0,1-8.38,3.6,41.59,41.59,0,0,1-9.7,1.12,54.79,54.79,0,0,1-10.44-1,57.73,57.73,0,0,1-10.24-2.94,46.77,46.77,0,0,1-9-4.65l7.06-14a12.52,12.52,0,0,0,2.55,1.82,46.47,46.47,0,0,0,5.34,2.74,49.74,49.74,0,0,0,7.1,2.5,29.8,29.8,0,0,0,7.94,1.08q4.32,0,6.42-1.34a4.22,4.22,0,0,0,2.11-3.75,4.65,4.65,0,0,0-2.21-4.09,23.79,23.79,0,0,0-6-2.63q-3.78-1.17-8.68-2.63a49.69,49.69,0,0,1-10.53-4.39,16.4,16.4,0,0,1-6.18-5.94,17.47,17.47,0,0,1-2-8.78,21.08,21.08,0,0,1,3.48-12.32,21.73,21.73,0,0,1,9.36-7.6A31.44,31.44,0,0,1,626,417.87a37.44,37.44,0,0,1,9.46,1.18A53.31,53.31,0,0,1,644,422c2.65,1.18,5,2.35,7.11,3.53Z" transform="translate(-381.5 -276.18)"/><path class="cls-2" d="M715,487.94V446.49l-15,30.18h-8.82l-15-30.18v41.45H660.09V418.36h17.45l18,36.36,18.13-36.36h17.35v69.58Z" transform="translate(-381.5 -276.18)"/><path class="cls-2" d="M783.67,438.84a6.94,6.94,0,0,0-2.06-1.51,42.77,42.77,0,0,0-4.41-2.21,43.33,43.33,0,0,0-5.78-2.06,23,23,0,0,0-6.27-.88,12,12,0,0,0-6.37,1.41,4.75,4.75,0,0,0-2.26,4.33,4.49,4.49,0,0,0,1.72,3.7,15.41,15.41,0,0,0,5,2.39q3.22,1,7.94,2.38a59.19,59.19,0,0,1,11.56,4.23,19.15,19.15,0,0,1,7.5,6.38q2.59,3.88,2.59,10.31a20.82,20.82,0,0,1-2.15,9.88,17.9,17.9,0,0,1-5.83,6.52,25.09,25.09,0,0,1-8.38,3.6,41.59,41.59,0,0,1-9.7,1.12,54.79,54.79,0,0,1-10.44-1A57.49,57.49,0,0,1,746,484.46a46.77,46.77,0,0,1-9-4.65l7.06-14a12.52,12.52,0,0,0,2.55,1.82,44.86,44.86,0,0,0,5.34,2.74,49.74,49.74,0,0,0,7.1,2.5,29.74,29.74,0,0,0,7.94,1.08q4.31,0,6.42-1.34a4.24,4.24,0,0,0,2.11-3.75,4.65,4.65,0,0,0-2.21-4.09,23.71,23.71,0,0,0-6-2.63q-3.76-1.17-8.67-2.63a49.47,49.47,0,0,1-10.53-4.39,16.4,16.4,0,0,1-6.18-5.94,17.47,17.47,0,0,1-2-8.78,21.08,21.08,0,0,1,3.48-12.32,21.73,21.73,0,0,1,9.36-7.6,31.44,31.44,0,0,1,12.84-2.59,37.5,37.5,0,0,1,9.46,1.18,53.66,53.66,0,0,1,8.52,2.94c2.65,1.18,5,2.35,7.11,3.53Z" transform="translate(-381.5 -276.18)"/><path class="cls-3" d="M476.52,515.2h-5.14v2.56h5.72l-.26,2.19h-7.69V508.68h7.65v2.19h-5.42V513h5.14Z" transform="translate(-381.5 -276.18)"/><path class="cls-3" d="M479.74,508.68H482v9.08h5.15l-.29,2.19h-7.1Z" transform="translate(-381.5 -276.18)"/><path class="cls-3" d="M496.73,515.2h-5.14v2.56h5.72l-.26,2.19h-7.69V508.68H497v2.19h-5.42V513h5.14Z" transform="translate(-381.5 -276.18)"/><path class="cls-3" d="M508.92,516.37a4.41,4.41,0,0,1-4.6,3.82c-3.29,0-4.88-2.78-4.88-5.86s1.75-5.89,5-5.89a4.31,4.31,0,0,1,4.5,3.8h-2.26a2.17,2.17,0,0,0-2.26-1.68c-1.72,0-2.62,1.61-2.62,3.66s.82,3.86,2.63,3.86a2.1,2.1,0,0,0,2.24-1.71Z" transform="translate(-381.5 -276.18)"/><path class="cls-3" d="M514.05,510.86h-3.24v-2.18h8.71v2.18h-3.23V520h-2.24Z" transform="translate(-381.5 -276.18)"/><path class="cls-3" d="M524.16,515.61V520H522V508.68h5a3,3,0,0,1,3.34,3.22,2.64,2.64,0,0,1-1.6,2.67c.38.18,1.36.62,1.36,2.65v.56a11,11,0,0,0,.12,2.17h-2.29a8.36,8.36,0,0,1-.18-2.36v-.37c0-1.14-.34-1.61-1.68-1.61Zm0-2.05h2.3c1.09,0,1.56-.48,1.56-1.43s-.48-1.4-1.54-1.4h-2.32Z" transform="translate(-381.5 -276.18)"/><path class="cls-3" d="M535.41,508.68V520h-2.24V508.68Z" transform="translate(-381.5 -276.18)"/><path class="cls-3" d="M547.8,516.37a4.41,4.41,0,0,1-4.6,3.82c-3.29,0-4.88-2.78-4.88-5.86s1.75-5.89,5-5.89a4.31,4.31,0,0,1,4.5,3.8h-2.26a2.17,2.17,0,0,0-2.26-1.68c-1.72,0-2.62,1.61-2.62,3.66s.82,3.86,2.63,3.86a2.11,2.11,0,0,0,2.25-1.71Z" transform="translate(-381.5 -276.18)"/><path class="cls-3" d="M552.38,517.39l-.8,2.56h-2.3L553,508.68h2.86l3.9,11.27h-2.41l-.86-2.56Zm3.47-2.19c-.85-2.58-1.27-3.9-1.49-4.76h0c-.21.84-.7,2.56-1.39,4.76Z" transform="translate(-381.5 -276.18)"/><path class="cls-3" d="M561.94,508.68h2.24v9.08h5.15L569,520h-7.1Z" transform="translate(-381.5 -276.18)"/><path class="cls-3" d="M577.69,516.57c.26,1,.9,1.62,2.43,1.62s1.84-.54,1.84-1.27-.42-1.21-2.36-1.61c-3.2-.67-3.78-1.94-3.78-3.46,0-2.25,1.77-3.4,3.95-3.4,3.16,0,4,2,4.12,3.3h-2.23c-.13-.56-.44-1.3-2-1.3-1.06,0-1.6.41-1.6,1.14s.37,1,2.1,1.36c3.5.77,4,2.06,4,3.7,0,2-1.25,3.53-4.34,3.53-2.88,0-4.18-1.58-4.46-3.61Z" transform="translate(-381.5 -276.18)"/><path class="cls-3" d="M589.15,508.68v6.37c0,2.4,1,3,2.16,3s2-.64,2-3v-6.37h2.23v6.46c0,3.42-1.57,5.05-4.31,5.05s-4.33-1.49-4.33-5v-6.52Z" transform="translate(-381.5 -276.18)"/><path class="cls-3" d="M601.06,515.61V520h-2.21V508.68h5a3,3,0,0,1,3.34,3.22,2.64,2.64,0,0,1-1.6,2.67c.38.18,1.37.62,1.37,2.65v.56a11,11,0,0,0,.11,2.17h-2.29a8.47,8.47,0,0,1-.17-2.36v-.37c0-1.14-.35-1.61-1.69-1.61Zm0-2.05h2.3c1.09,0,1.56-.48,1.56-1.43s-.48-1.4-1.54-1.4h-2.32Z" transform="translate(-381.5 -276.18)"/><path class="cls-3" d="M612.61,520l-3.76-11.27h2.48l1.62,5.37c.61,2,.87,3.12,1,3.84h0c.14-.65.27-1.13,1.13-4l1.57-5.16h2.39L615.28,520Z" transform="translate(-381.5 -276.18)"/><path class="cls-3" d="M623.42,508.68V520h-2.24V508.68Z" transform="translate(-381.5 -276.18)"/><path class="cls-3" d="M635.81,516.37a4.41,4.41,0,0,1-4.6,3.82c-3.29,0-4.88-2.78-4.88-5.86s1.75-5.89,5-5.89a4.31,4.31,0,0,1,4.5,3.8h-2.26a2.17,2.17,0,0,0-2.26-1.68c-1.73,0-2.62,1.61-2.62,3.66s.82,3.86,2.63,3.86a2.1,2.1,0,0,0,2.24-1.71Z" transform="translate(-381.5 -276.18)"/><path class="cls-3" d="M645.72,515.2h-5.14v2.56h5.72L646,520h-7.69V508.68H646v2.19h-5.42V513h5.14Z" transform="translate(-381.5 -276.18)"/><path class="cls-3" d="M662.07,515.63c0-1.94,0-4,.07-5.21h0c-.46,2.08-1.33,5.39-2.41,9.53h-2c-.84-3.63-1.81-7.39-2.3-9.53h0c.06,1.31.15,3.5.15,5.42V520h-2V508.68h3.23c.93,3.49,1.78,6.55,2.05,8.1h0c.39-1.78,1.22-4.74,2.11-8.1h3.25V520h-2.16Z" transform="translate(-381.5 -276.18)"/><path class="cls-3" d="M669.54,517.39l-.81,2.56h-2.3l3.71-11.27H673l3.9,11.27h-2.42l-.85-2.56ZM673,515.2c-.86-2.58-1.27-3.9-1.49-4.76h0c-.2.84-.69,2.56-1.38,4.76Z" transform="translate(-381.5 -276.18)"/><path class="cls-3" d="M679.1,520V508.68h2.65c2.58,4.83,3.62,6.59,4.19,7.93h0c-.09-1.18-.08-3.29-.08-5.15v-2.78h2.05V520h-2.48c-.87-1.68-3.82-7.28-4.36-8.57h0c.08,1.39.08,3,.08,5V520Z" transform="translate(-381.5 -276.18)"/><path class="cls-3" d="M693.26,517.39l-.81,2.56h-2.3l3.71-11.27h2.87l3.9,11.27h-2.42l-.85-2.56Zm3.47-2.19c-.86-2.58-1.27-3.9-1.49-4.76h0c-.2.84-.69,2.56-1.39,4.76Z" transform="translate(-381.5 -276.18)"/><path class="cls-3" d="M711.68,520h-1.62c0-.25-.11-.75-.15-1.15a3.26,3.26,0,0,1-3.1,1.39c-3,0-4.65-2.51-4.65-5.81s1.77-5.94,5.06-5.94a4.2,4.2,0,0,1,4.48,3.61h-2.25a2.15,2.15,0,0,0-2.23-1.55c-1.88,0-2.7,1.65-2.7,3.75s.85,3.86,2.73,3.86a2.1,2.1,0,0,0,2.27-2.33v-.18h-2.24v-2.11h4.4Z" transform="translate(-381.5 -276.18)"/><path class="cls-3" d="M722.18,515.2H717v2.56h5.71L722.5,520h-7.7V508.68h7.66v2.19H717V513h5.14Z" transform="translate(-381.5 -276.18)"/><path class="cls-3" d="M733.83,515.63c0-1.94,0-4,.07-5.21h0c-.45,2.08-1.32,5.39-2.4,9.53h-2c-.85-3.63-1.81-7.39-2.3-9.53h0c.07,1.31.16,3.5.16,5.42V520h-2V508.68h3.23c.93,3.49,1.78,6.55,2.05,8.1h0c.39-1.78,1.22-4.74,2.11-8.1H736V520h-2.16Z" transform="translate(-381.5 -276.18)"/><path class="cls-3" d="M746.76,515.2h-5.14v2.56h5.71l-.25,2.19h-7.7V508.68H747v2.19h-5.42V513h5.14Z" transform="translate(-381.5 -276.18)"/><path class="cls-3" d="M750,520V508.68h2.65c2.58,4.83,3.62,6.59,4.2,7.93h0c-.09-1.18-.08-3.29-.08-5.15v-2.78h2.05V520h-2.48c-.87-1.68-3.81-7.28-4.36-8.57h0c.08,1.39.08,3,.08,5V520Z" transform="translate(-381.5 -276.18)"/><path class="cls-3" d="M764.48,510.86h-3.24v-2.18H770v2.18h-3.23V520h-2.24Z" transform="translate(-381.5 -276.18)"/><path class="cls-3" d="M778.21,516.57c.26,1,.9,1.62,2.43,1.62s1.84-.54,1.84-1.27-.42-1.21-2.36-1.61c-3.2-.67-3.78-1.94-3.78-3.46,0-2.25,1.77-3.4,3.95-3.4,3.16,0,4,2,4.12,3.3h-2.23c-.14-.56-.44-1.3-2-1.3-1.07,0-1.6.41-1.6,1.14s.37,1,2.1,1.36c3.5.77,4,2.06,4,3.7,0,2-1.25,3.53-4.34,3.53-2.88,0-4.18-1.58-4.46-3.61Z" transform="translate(-381.5 -276.18)"/><path class="cls-3" d="M789.84,520v-4a.72.72,0,0,0-.11-.37l-3.81-6.87h2.65c.91,1.77,2,3.91,2.48,5,.47-1,1.63-3.2,2.53-5H796l-3.88,7a.51.51,0,0,0,0,.29v4Z" transform="translate(-381.5 -276.18)"/><path class="cls-3" d="M799.3,516.57c.26,1,.9,1.62,2.43,1.62s1.84-.54,1.84-1.27-.42-1.21-2.36-1.61c-3.2-.67-3.78-1.94-3.78-3.46,0-2.25,1.77-3.4,4-3.4,3.16,0,4,2,4.12,3.3h-2.23c-.14-.56-.44-1.3-2-1.3-1.07,0-1.6.41-1.6,1.14s.37,1,2.1,1.36c3.5.77,4.05,2.06,4.05,3.7,0,2-1.25,3.53-4.34,3.53-2.88,0-4.18-1.58-4.46-3.61Z" transform="translate(-381.5 -276.18)"/><path class="cls-3" d="M810.8,510.86h-3.25v-2.18h8.71v2.18H813V520H810.8Z" transform="translate(-381.5 -276.18)"/><path class="cls-3" d="M826.05,515.2h-5.14v2.56h5.72l-.26,2.19h-7.69V508.68h7.65v2.19h-5.42V513h5.14Z" transform="translate(-381.5 -276.18)"/><path class="cls-3" d="M837.71,515.63c0-1.94,0-4,.06-5.21h0c-.46,2.08-1.32,5.39-2.41,9.53h-2c-.84-3.63-1.81-7.39-2.3-9.53h0c.07,1.31.15,3.5.15,5.42V520h-2V508.68h3.23c.93,3.49,1.77,6.55,2,8.1h0c.39-1.78,1.22-4.74,2.12-8.1h3.24V520h-2.15Z" transform="translate(-381.5 -276.18)"/><polygon class="cls-3" points="257.16 97.18 255.81 98.09 254.32 99.1 254.25 99.15 252.88 100.09 252.86 100.09 252.79 100.14 252.38 100.43 252.38 100.43 252.39 100.15 252.4 99.9 252.46 98.93 252.51 98.1 252.57 97.18 257.16 97.18"/><polygon class="cls-3" points="178.64 121.56 177.75 121.56 147.71 121.73 147.21 121.73 146.07 121.74 145.88 121.17 145.88 121.16 145.3 119.51 145.3 119.49 143.63 114.62 142.95 112.66 173.01 120.16 174.95 120.64 178.64 121.56"/><polygon class="cls-3" points="102.55 142.8 109.86 148.35 105.91 159.11 97.08 152.66 102.55 142.8"/><path class="cls-3" d="M636.69,373.36h-2.61q-43.56-.09-87.14,0c-.42-1.07-.91-2.13-1.27-3.22Q531.35,326.06,517,282c-.51-1.57-1.1-3.12-2.06-5.84-5,15.19-9.43,29.06-14,42.9q-9,27.17-18,54.31l-98.65-.08c-.82,0-2-.26-2.41.17-1.07,1.19.14,1.55,1.07,1.87,1-.14,1.94-.24,2.91-.32a4,4,0,0,0-1.07,1.4c1.53,1.25,3,2.56,4.61,3.72q35.15,25.55,70.35,51c2.85,2.05,3.66,3.74,2.48,7.3-10.09,30.49-19.93,61.06-29.85,91.61.23.25.45.51.67.76C467,505.48,501,480.12,535.41,454.38c-6.37-2.81-12.17-5.17-17.73-7.81L511.05,443l-3.36,2.4-.36.22c-.27.18-.55.37-.82.59-3.89,2.95-14.68,10.18-16,11.08-4,2.74-8,5.45-13.16,8.94,4.52-13.87,8.48-26.34,12.69-38.75.57-1.67.62-2.83,0-3.88l-10-7.66-24-18.3h0l16.47.18,2,0c7.47.06,14.94,0,22.41-.32l2.75,0,.57-1.75.9-2.76a0,0,0,0,1,0,0l1.13-3.5,0-.1c3.58-10.85,7.13-21.79,10.94-33.48,3.89,11.5,7.57,22.35,11.2,33.06l.67,2q.81,2.43,1.64,4.85a.05.05,0,0,0,0,0l.57,1.65v0a1.79,1.79,0,0,0,1.33.55h.06a1.34,1.34,0,0,0,.4,0h0c.75,0,1.54-.25,2.18-.25,9.28.08,18.57.09,27.86.09h.89c4.17,0,8.34,0,12.51,0,10.75-.05,21.51-.21,32.26-.33,10.28-6.22,19.7-13.61,29.18-20.94l.2-.12.07-.05h0l1.38-.94.07-.05,1.49-1A1.53,1.53,0,0,0,636.69,373.36Z" transform="translate(-381.5 -276.18)"/><path class="cls-2" d="M525.91,421.74l-.42-1.69,2.17-1.56,1.06-.78.1-.06c5.25-3.41,10.19-7.29,15.26-11a97.6,97.6,0,0,0-10.36-.93l-13.31-1.19-7.64-22.15-8.36,22.79h0l-24.13.47L500,419.62l-.54,1.82-6.6,22.45,1.17-.84c4.08-2.93,7.68-5.29,10.91-7.9l5.45-3.94,1.8-1.31,1.16.78,17.78,11.87-4.31-17.24Z" transform="translate(-381.5 -276.18)"/></svg>