<svg id="Layer_1" data-name="Layer 1" xmlns="http://www.w3.org/2000/svg" viewBox="0 0 411.28 254.65"><defs><style>.cls-1{fill:#970020;}.cls-2{fill:#1baf3a;}.cls-3{fill:#990724;}.cls-4{fill:#282828;}</style></defs><title>Esmvvs</title><path class="cls-1" d="M383,375.35c1.25-1.66,3.06-1,4.62-1q47.67-.06,95.34,0c-1.65,1.69-3.77.94-5.67.94q-42.84.07-85.68,0c-2.32,0-4.67-.25-6.78,1.07Z" transform="translate(-381.5 -276.18)"/><path class="cls-2" d="M594.92,473.83v14.11H546V418.36h48v14.11H562.09V446h27.44v13H562.09v14.8Z" transform="translate(-381.5 -276.18)"/><path class="cls-2" d="M644,438.84a6.79,6.79,0,0,0-2.06-1.51,42.77,42.77,0,0,0-4.41-2.21,43.33,43.33,0,0,0-5.78-2.06,23,23,0,0,0-6.27-.88,12,12,0,0,0-6.37,1.41,4.76,4.76,0,0,0-2.25,4.33,4.48,4.48,0,0,0,1.71,3.7,15.41,15.41,0,0,0,4.95,2.39c2.16.68,4.8,1.47,7.94,2.38A59,59,0,0,1,643,450.62a19.15,19.15,0,0,1,7.5,6.38q2.6,3.88,2.6,10.31a20.7,20.7,0,0,1-2.16,9.88,17.9,17.9,0,0,1-5.83,6.52,25,25,0,0,1-8.38,3.6,41.59,41.59,0,0,1-9.7,1.12,54.79,54.79,0,0,1-10.44-1,57.73,57.73,0,0,1-10.24-2.94,46.77,46.77,0,0,1-9-4.65l7.06-14a12.52,12.52,0,0,0,2.55,1.82,46.47,46.47,0,0,0,5.34,2.74,49.74,49.74,0,0,0,7.1,2.5,29.8,29.8,0,0,0,7.94,1.08q4.32,0,6.42-1.34a4.22,4.22,0,0,0,2.11-3.75,4.65,4.65,0,0,0-2.21-4.09,23.79,23.79,0,0,0-6-2.63q-3.78-1.17-8.68-2.63a49.69,49.69,0,0,1-10.53-4.39,16.4,16.4,0,0,1-6.18-5.94,17.47,17.47,0,0,1-2-8.78,21.08,21.08,0,0,1,3.48-12.32,21.73,21.73,0,0,1,9.36-7.6A31.44,31.44,0,0,1,626,417.87a37.44,37.44,0,0,1,9.46,1.18A53.31,53.31,0,0,1,644,422c2.65,1.18,5,2.35,7.11,3.53Z" transform="translate(-381.5 -276.18)"/><path class="cls-2" d="M715,487.94V446.49l-15,30.18h-8.82l-15-30.18v41.45H660.09V418.36h17.45l18,36.36,18.13-36.36h17.35v69.58Z" transform="translate(-381.5 -276.18)"/><path class="cls-2" d="M783.67,438.84a6.94,6.94,0,0,0-2.06-1.51,42.77,42.77,0,0,0-4.41-2.21,43.33,43.33,0,0,0-5.78-2.06,23,23,0,0,0-6.27-.88,12,12,0,0,0-6.37,1.41,4.75,4.75,0,0,0-2.26,4.33,4.46,4.46,0,0,0,1.72,3.7,15.41,15.41,0,0,0,5,2.39q3.22,1,7.94,2.38a59.19,59.19,0,0,1,11.56,4.23,19.15,19.15,0,0,1,7.5,6.38q2.59,3.88,2.59,10.31a20.82,20.82,0,0,1-2.15,9.88,17.9,17.9,0,0,1-5.83,6.52,25.09,25.09,0,0,1-8.38,3.6,41.59,41.59,0,0,1-9.7,1.12,54.79,54.79,0,0,1-10.44-1A57.49,57.49,0,0,1,746,484.46a46.77,46.77,0,0,1-9-4.65l7.06-14a12.52,12.52,0,0,0,2.55,1.82,44.86,44.86,0,0,0,5.34,2.74,49.74,49.74,0,0,0,7.1,2.5,29.74,29.74,0,0,0,7.94,1.08q4.31,0,6.42-1.34a4.24,4.24,0,0,0,2.11-3.75,4.65,4.65,0,0,0-2.21-4.09,23.71,23.71,0,0,0-6-2.63q-3.76-1.17-8.67-2.63a49.47,49.47,0,0,1-10.53-4.39,16.4,16.4,0,0,1-6.18-5.94,17.47,17.47,0,0,1-2-8.78,21.08,21.08,0,0,1,3.48-12.32,21.73,21.73,0,0,1,9.36-7.6,31.44,31.44,0,0,1,12.84-2.59,37.36,37.36,0,0,1,9.45,1.18,53.78,53.78,0,0,1,8.53,2.94c2.65,1.18,5,2.35,7.11,3.53Z" transform="translate(-381.5 -276.18)"/><polygon class="cls-3" points="257.16 97.18 255.81 98.09 254.32 99.1 254.25 99.15 252.88 100.09 252.86 100.09 252.79 100.14 252.38 100.43 252.38 100.43 252.39 100.15 252.4 99.9 252.46 98.93 252.51 98.1 252.57 97.18 257.16 97.18"/><polygon class="cls-3" points="178.64 121.56 177.75 121.56 147.71 121.73 147.21 121.73 146.07 121.74 145.88 121.17 145.88 121.16 145.3 119.51 145.3 119.49 143.63 114.62 142.95 112.66 173.01 120.16 174.95 120.64 178.64 121.56"/><polygon class="cls-3" points="102.55 142.8 109.86 148.35 105.91 159.11 97.08 152.66 102.55 142.8"/><path class="cls-2" d="M636.69,373.36h-2.61q-43.56-.09-87.14,0c-.42-1.07-.91-2.13-1.27-3.22Q531.35,326.06,517,282c-.51-1.57-1.1-3.12-2.06-5.84-5,15.19-9.43,29.06-14,42.9q-9,27.17-18,54.31l-98.65-.08c-.82,0-2-.26-2.41.17-1.07,1.19.14,1.55,1.07,1.87,1-.14,1.94-.24,2.91-.32a4,4,0,0,0-1.07,1.4c1.53,1.25,3,2.56,4.61,3.72q35.15,25.55,70.35,51c2.85,2.05,3.66,3.74,2.48,7.3-10.09,30.49-19.93,61.06-29.85,91.61.23.25.45.51.67.76C467,505.48,501,480.12,535.41,454.38c-6.37-2.81-12.17-5.17-17.73-7.81L511.05,443l-3.36,2.4-.36.22c-.27.18-.55.37-.82.59-3.89,2.95-14.68,10.18-16,11.08-4,2.74-8,5.45-13.16,8.94,4.52-13.87,8.48-26.34,12.69-38.75.57-1.67.62-2.83,0-3.88l-10-7.66-24-18.3h0l16.47.18,2,0c7.47.06,14.94,0,22.41-.32l2.75,0,.57-1.75.9-2.76a0,0,0,0,1,0,0l1.13-3.5,0-.1c3.58-10.85,7.13-21.79,10.94-33.48,3.89,11.5,7.57,22.35,11.2,33.06l.67,2q.81,2.43,1.64,4.85a.05.05,0,0,0,0,0l.57,1.65v0a1.79,1.79,0,0,0,1.33.55h.06a1.34,1.34,0,0,0,.4,0h0c.75,0,1.54-.25,2.18-.25,9.28.08,18.57.09,27.86.09h.89c4.17,0,8.34,0,12.51,0,10.75-.05,21.51-.21,32.26-.33,10.28-6.22,19.7-13.61,29.18-20.94l.2-.12.07-.05h0l1.38-.94.07-.05,1.49-1A1.53,1.53,0,0,0,636.69,373.36Z" transform="translate(-381.5 -276.18)"/><path class="cls-4" d="M525.91,421.74l-.42-1.69,2.17-1.56,1.06-.78.1-.06c5.25-3.41,10.19-7.29,15.26-11a97.6,97.6,0,0,0-10.36-.93l-13.31-1.19-7.64-22.15-8.36,22.79h0l-24.13.47L500,419.62l-.54,1.82-6.6,22.45,1.17-.84c4.08-2.93,7.68-5.29,10.91-7.9l5.45-3.94,1.8-1.31,1.16.78,17.78,11.87-4.31-17.24Z" transform="translate(-381.5 -276.18)"/></svg>